<?xml version="1.0" encoding="utf-8"?>
<!-- Generator: Adobe Illustrator 27.2.0, SVG Export Plug-In . SVG Version: 6.00 Build 0)  -->
<svg version="1.1" xmlns="http://www.w3.org/2000/svg" xmlns:xlink="http://www.w3.org/1999/xlink" x="0px" y="0px"
	 viewBox="0 0 2048 2048" style="enable-background:new 0 0 2048 2048;" xml:space="preserve">
<style type="text/css">
	.st0{fill:#F15A24;}
	.st1{fill:none;stroke:#F15A24;stroke-width:7.5684;stroke-miterlimit:10;}
	.st2{fill:none;stroke:#F15A24;stroke-width:5.7448;stroke-miterlimit:10;}
	.st3{fill:none;stroke:#F15A24;stroke-width:8.3984;stroke-miterlimit:10;}
	.st4{fill:none;stroke:#F15A24;stroke-width:6.3748;stroke-miterlimit:10;}
	.st5{fill:none;stroke:#F15A24;stroke-width:7.8125;stroke-miterlimit:10;}
	.st6{fill:none;stroke:#F15A24;stroke-width:5.9301;stroke-miterlimit:10;}
	.st7{fill:none;stroke:#F15A24;stroke-width:8.5938;stroke-miterlimit:10;}
	.st8{fill:none;stroke:#F15A24;stroke-width:6.5231;stroke-miterlimit:10;}
	.st9{fill:none;stroke:#F15A24;stroke-width:21.4844;stroke-miterlimit:10;}
	.st10{fill:none;stroke:#F15A24;stroke-width:16.3077;stroke-miterlimit:10;}
	.st11{fill:none;stroke:#F15A24;stroke-width:24.2187;stroke-miterlimit:10;}
	.st12{fill:none;stroke:#F15A24;stroke-width:18.3832;stroke-miterlimit:10;}
	.st13{fill:none;stroke:#F15A24;stroke-width:100;stroke-miterlimit:10;}
	.st14{fill:none;stroke:#F15A24;stroke-width:75.9049;stroke-miterlimit:10;}
	.st15{fill:none;stroke:#0000FF;stroke-width:0.999;stroke-miterlimit:10;}
	.st16{fill:none;stroke:#0000FF;stroke-width:0.3746;stroke-miterlimit:10;}
	.st17{fill:none;stroke:#0000FF;stroke-width:0.3512;stroke-miterlimit:10;}
	.st18{fill:#333333;}
	.st19{fill:none;stroke:#F15A24;stroke-width:69.8242;stroke-miterlimit:10;}
	.st20{fill:none;stroke:#F15A24;stroke-width:53;stroke-miterlimit:10;}
	.st21{fill:#3FA9F5;}
	.st22{fill:none;stroke:#3FA9F5;stroke-width:69.8242;stroke-miterlimit:10;}
	.st23{fill:none;stroke:#3FA9F5;stroke-width:53;stroke-miterlimit:10;}
	.st24{fill:#7AC943;}
	.st25{fill:none;stroke:#7AC943;stroke-width:69.8242;stroke-miterlimit:10;}
	.st26{fill:none;stroke:#7AC943;stroke-width:53;stroke-miterlimit:10;}
	.st27{fill:#FFFFFF;}
	.st28{fill:none;stroke:#FFFFFF;stroke-width:69.8242;stroke-miterlimit:10;}
	.st29{fill:none;stroke:#FFFFFF;stroke-width:53;stroke-miterlimit:10;}
	.st30{fill:none;stroke:#000000;stroke-width:69.8242;stroke-miterlimit:10;}
	.st31{fill:none;stroke:#000000;stroke-width:53;stroke-miterlimit:10;}
	.st32{fill:#655CFF;}
	.st33{display:none;}
	.st34{display:inline;}
</style>
<g id="trans_x5F_origin">
	<g id="trans_x5F_origin_x5F_2048_00000013915790410119545000000014534278622933517245_">
		<g>
			<path class="st0" d="M1302.22,843.05C848.79,891.82,407.79,623.13,231.45,204.3c-25.48-59.54-45.61-121.55-60.06-185.01L269.51,0
				c19.09,117.2,59.61,230.93,119.16,334.04c182.06,320.55,544.75,518.78,913.02,501.35
				C1301.69,835.4,1302.22,843.05,1302.22,843.05L1302.22,843.05z"/>
		</g>
		<line class="st13" x1="219.51" y1="846" x2="219.51" y2="0"/>
		<g>
			<path class="st0" d="M479.39,603.33c-48.73,93.35-129.69,169.91-225.71,218.1c0,0-30.95-95.09-30.95-95.09
				c45.34-6.02,91.09-19.28,134.72-39.79C401.07,666.05,442.62,638.24,479.39,603.33L479.39,603.33z"/>
		</g>
		<g>
			<path class="st0" d="M211.63,819.2v150l1632.15,0c19.54,0,32.41,9.95,38.34,15.88c5.93,5.93,15.88,18.8,15.88,38.34v419.86
				c0,61.45-12,120.99-35.67,176.95c-22.9,54.13-55.7,102.78-97.51,144.59c-41.81,41.81-90.46,74.62-144.59,97.51
				c-55.96,23.67-115.5,35.67-176.95,35.67H430.44c-74.91,0-145.33-29.17-198.3-82.14c-52.97-52.97-82.14-123.39-82.14-198.3
				l0-586.73c0-22.21,11.31-36.84,18.05-43.58c6.74-6.74,21.37-18.05,43.58-18.05V819.2 M211.63,819.2
				C94.75,819.2,0,913.95,0,1030.83l0,586.73C0,1855.29,192.71,2048,430.44,2048h1012.83c333.98,0,604.73-270.75,604.73-604.73
				v-419.86c0-112.79-91.43-204.22-204.22-204.22L211.63,819.2L211.63,819.2z"/>
		</g>
		<g>
			<path class="st0" d="M1280.44,1669.5c77.24,71.97,180.45,113.06,284.02,112.98c97.23,0.49,193.01-34.96,264.48-98.05
				c0,0,85.6,127.06,85.6,127.06c-56.11,30.68-116.92,50.84-178.27,59.58c-119.63,17.48-244.55-9.1-343.5-75.45
				c-47.52-31.63-88.8-72.06-121.19-118.41C1271.56,1677.22,1280.44,1669.5,1280.44,1669.5L1280.44,1669.5z"/>
		</g>
		<g>
			<path class="st0" d="M979.12,1081.39V1153c27.5,0,54.63,5.48,80.64,16.29c26,10.8,50.14,26.59,71.74,46.92
				c22.25,20.93,41,45.92,55.74,74.27c6.79,13.05,12.63,26.65,17.51,40.73l-133.27,26.67c-13.67,2.74-27.55,4.12-41.26,4.12
				c-27.5,0-54.64-5.48-80.65-16.29c-26-10.8-50.14-26.59-71.75-46.91c-22.25-20.93-41-45.92-55.74-74.27
				c-6.79-13.05-12.63-26.66-17.51-40.74l133.27-26.67c13.66-2.73,27.55-4.12,41.26-4.12L979.12,1081.39 M979.1,1081.39
				c-18.23,0-36.73,1.8-55.31,5.51l-205.56,41.13l1.59,10.25c26.94,173.35,160.1,295.31,310.41,295.31c18.23,0,36.73-1.8,55.31-5.51
				l205.56-41.13l-1.59-10.25C1262.57,1203.36,1129.4,1081.38,979.1,1081.39L979.1,1081.39z"/>
		</g>
		<g>
			<path class="st0" d="M1030.55,1350.53c-42.01,0-76.19-34.18-76.19-76.19v-19.82c0-42.01,34.18-76.19,76.19-76.19h19.82
				c42.01,0,76.19,34.18,76.19,76.19v19.82c0,42.01-34.18,76.19-76.19,76.19H1030.55z"/>
			<path class="st0" d="M1050.37,1194.62c33.03,0,59.9,26.87,59.9,59.9v19.82c0,33.03-26.87,59.9-59.9,59.9h-19.82
				c-33.03,0-59.9-26.87-59.9-59.9v-19.82c0-33.03,26.87-59.9,59.9-59.9H1050.37 M1050.37,1162.02h-19.82
				c-51.08,0-92.49,41.41-92.49,92.49v19.82c0,51.08,41.41,92.49,92.49,92.49h19.82c51.08,0,92.49-41.41,92.49-92.49l0-19.82
				C1142.86,1203.43,1101.45,1162.02,1050.37,1162.02L1050.37,1162.02z"/>
		</g>
		<line class="st14" x1="470.26" y1="512.67" x2="470.26" y2="173.55"/>
		<g>
			<path class="st0" d="M1183.5,834.72c-325.65,12.85-618.12-211.75-718.15-517.71c-14.63-43.64-25.5-88.66-32.5-134.38l75.36-9.08
				c14,168.71,88.66,332.18,209.41,452.35c122.22,123.36,291.89,198.04,465.88,202.99C1183.5,828.9,1183.5,834.72,1183.5,834.72
				L1183.5,834.72z"/>
		</g>
	</g>
</g>
<g id="Media_x5F_02">
</g>
<g id="golden_x5F_ratio">
</g>
<g id="other" class="st33">
</g>
</svg>
